<svg width="32" height="33" viewBox="0 0 32 33" fill="none" xmlns="http://www.w3.org/2000/svg"><g clip-path="url(#clip0)" fill="#fff"><path d="M3.78 32.979h-.86l-.008-.01-1.887-2.678-.027-.039h.766a2.8 2.8 0 00.499-.038 1.85 1.85 0 00.3-.075.806.806 0 00.367-.309.74.74 0 00.13-.396.675.675 0 00-.125-.39l.02-.013m.827 3.948l-.338-2.733m.338 2.733l-.027-.04-1.41-2.064M3.78 32.98l-1.467-2.103m.64-1.845l-.02.014a.923.923 0 00-.365-.299l.01-.022m.375.307a.7.7 0 01.13.402c0 .133-.045.27-.134.41a.832.832 0 01-.378.319l.008-1.438m.374.307a.948.948 0 00-.374-.307m0 0l-.011.022a1.257 1.257 0 00-.555-.116H.886l.015 4.323v.025H.204v-5.044h1.811c.242 0 .47.04.681.117.212.078.398.19.558.335.156.14.276.3.362.483a1.33 1.33 0 01-.152 1.39m0 0s0 0 0 0l-.02-.014m.02.015s0 0 0 0l-.02-.015m.02.015a1.814 1.814 0 01-.628.505l-.002.001h0a1.553 1.553 0 01-.49.108m1.1-.63c-.077.103-.17.197-.28.284a1.82 1.82 0 01-.339.215 1.512 1.512 0 01-.497.107l.017.024m0 0l-.03.001M.876 32.953H.851h.025zm0 0v-.025h0v.025zm.169-2.676h.03l-.01-.014-.02.014zm0 0v.025h.018l-.018-.025zm2.688 2.677h-.03l.01.014.02-.014zm0 0v-.025h-.017l.017.025zm-1.42-2.078l-.016-.025.017.025zM.862 28.605v.025l.025-.025H.86zm9.136.564h0a2.573 2.573 0 00-.925-.933 2.448 2.448 0 00-1.269-.345c-.462 0-.888.115-1.277.345-.388.23-.695.54-.921.933-.227.392-.34.82-.34 1.285 0 .465.113.895.34 1.29.226.395.533.707.921.937.389.23.814.344 1.277.344.457 0 .88-.115 1.269-.344.388-.23.697-.543.925-.937h0a2.53 2.53 0 00.343-1.29c0-.464-.114-.893-.343-1.285zm-3.125 2.916h0A1.875 1.875 0 016.2 31.4a1.863 1.863 0 01-.249-.946c0-.338.083-.65.249-.938l-.022-.013.022.013c.166-.288.39-.516.674-.685a1.78 1.78 0 01.931-.254c.337 0 .647.085.93.253a1.874 1.874 0 01.924 1.624 1.88 1.88 0 01-.923 1.631h0a1.78 1.78 0 01-.931.254c-.337 0-.647-.085-.93-.254zm5.375-.291h0a2.008 2.008 0 01-.147-.765v-3.092h.684v3.092c0 .176.033.345.097.505.065.16.158.3.277.42.265.257.565.384.899.384a1.2 1.2 0 00.486-.101 1.34 1.34 0 00.413-.283c.12-.12.212-.26.277-.42.064-.161.097-.33.097-.505v-3.093h.684v3.093c0 .269-.05.523-.147.765h0a1.99 1.99 0 01-.418.64h0a1.94 1.94 0 01-.634.439h0c-.236.1-.49.152-.757.152a1.92 1.92 0 01-.754-.151s0 0 0 0l.01-.023a1.804 1.804 0 01-.624-.434l-.443-.623zm0 0c.098.24.24.454.426.64l-.426-.64zm9.596-3.833v-.025h-4.075v.695h1.688v4.348h.699V28.63h1.688v-.67zm1.777-.025h-.025v5.044h3.227v-.687H24.28v-1.491h1.946v-.695H24.28v-1.476h2.544v-.695H23.62z" stroke="#fff" stroke-width=".05"/><path d="M27 19.893c-3.662-3.65-7.067-7.237-10.7-10.586-1.903-1.755-3.688-1.692-5.743-.111-1.83 1.406-3.457 3.064-5.398 4.812 3.186.733 5.052 2.721 6.965 4.698 1.816 1.877 3.724 3.674 5.67 5.422 1.41 1.268 3.084 1.24 4.505.109 1.67-1.33 3.148-2.892 4.7-4.344zM1.736 24.612l6.192-6.023c-1.243-2.141-4.789-2.194-6.534-.483-1.607 1.575-2.224 4.624.342 6.506z"/></g><path d="M22.935 8.311V7.155h3.213V3.84h1.19v3.315h3.247v1.156h-3.247v3.349h-1.19V8.311h-3.213z" fill="#fff"/><path d="M22.935 8.311h-.5v.5h.5v-.5zm0-1.156v-.5h-.5v.5h.5zm3.213 0v.5h.5v-.5h-.5zm0-3.315v-.5h-.5v.5h.5zm1.19 0h.5v-.5h-.5v.5zm0 3.315h-.5v.5h.5v-.5zm3.247 0h.5v-.5h-.5v.5zm0 1.156v.5h.5v-.5h-.5zm-3.247 0v-.5h-.5v.5h.5zm0 3.349v.5h.5v-.5h-.5zm-1.19 0h-.5v.5h.5v-.5zm0-3.349h.5v-.5h-.5v.5zm-2.713 0V7.155h-1v1.156h1zm-.5-.656h3.213v-1h-3.213v1zm3.713-.5V3.84h-1v3.315h1zm-.5-2.815h1.19v-1h-1.19v1zm.69-.5v3.315h1V3.84h-1zm.5 3.815h3.247v-1h-3.247v1zm2.747-.5v1.156h1V7.155h-1zm.5.656h-3.247v1h3.247v-1zm-3.747.5v3.349h1V8.311h-1zm.5 2.849h-1.19v1h1.19v-1zm-.69.5V8.311h-1v3.349h1zm-.5-3.849h-3.213v1h3.213v-1z" fill="#fff"/><defs><clipPath id="clip0"><path fill="#fff" transform="translate(0 8)" d="M0 0h27v25H0z"/></clipPath></defs></svg>