<svg width="33" height="33" viewBox="0 0 33 33" fill="none" xmlns="http://www.w3.org/2000/svg"><path d="M25.715 8.179h2.457v2.561h.91V8.179h2.483v-.884h-2.483V4.76h-.91v2.535h-2.457v.884z" fill="#505050"/><path d="M25.715 8.179h-.5v.5h.5v-.5zm2.457 0h.5v-.5h-.5v.5zm0 2.561h-.5v.5h.5v-.5zm.91 0v.5h.5v-.5h-.5zm0-2.561v-.5h-.5v.5h.5zm2.483 0v.5h.5v-.5h-.5zm0-.884h.5v-.5h-.5v.5zm-2.483 0h-.5v.5h.5v-.5zm0-2.535h.5v-.5h-.5v.5zm-.91 0v-.5h-.5v.5h.5zm0 2.535v.5h.5v-.5h-.5zm-2.457 0v-.5h-.5v.5h.5zm0 1.384h2.457v-1h-2.457v1zm1.957-.5v2.561h1V8.179h-1zm.5 3.061h.91v-1h-.91v1zm1.41-.5V8.179h-1v2.561h1zm-.5-2.061h2.483v-1h-2.483v1zm2.983-.5v-.884h-1v.884h1zm-.5-1.384h-2.483v1h2.483v-1zm-1.983.5V4.76h-1v2.535h1zm-.5-3.035h-.91v1h.91v-1zm-1.41.5v2.535h1V4.76h-1zm.5 2.035h-2.457v1h2.457v-1zm-2.957.5v.884h1v-.884h-1z" fill="#505050"/><g clip-path="url(#clip0)"><path d="M3.733 32.954h-.801l-1.887-2.677h.718c.198 0 .366-.013.503-.038.138-.026.24-.052.306-.077a.832.832 0 00.378-.319.766.766 0 00.134-.41.7.7 0 00-.13-.402.948.948 0 00-.374-.307 1.282 1.282 0 00-.566-.119H.861l.015 4.348H.228V27.96h1.786c.24 0 .464.039.673.116.209.076.392.186.55.33.153.137.27.296.355.475a1.306 1.306 0 01-.15 1.365 1.515 1.515 0 01-.278.283 1.82 1.82 0 01-.34.215 1.486 1.486 0 01-.527.107l1.436 2.103zM7.804 33c-.459 0-.88-.114-1.264-.341a2.509 2.509 0 01-.913-.928 2.52 2.52 0 01-.336-1.277c0-.46.112-.885.336-1.273.225-.388.528-.696.913-.923a2.438 2.438 0 011.264-.341c.453 0 .872.113 1.256.34a2.55 2.55 0 01.917 3.474c-.227.39-.533.7-.917.928A2.423 2.423 0 017.804 33zm0-4.448c-.341 0-.655.086-.943.257a1.899 1.899 0 00-.684.694 1.873 1.873 0 00-.252.951c0 .348.084.667.252.959.168.291.396.523.684.694.287.171.602.257.943.257.341 0 .655-.085.943-.257a1.904 1.904 0 00.936-1.653c0-.343-.084-.66-.252-.95a1.899 1.899 0 00-.684-.695 1.813 1.813 0 00-.943-.257zM14.059 33c-.26 0-.508-.05-.745-.15a1.804 1.804 0 01-.623-.433 1.913 1.913 0 01-.42-.632 1.981 1.981 0 01-.145-.756v-3.067h.634v3.067a1.34 1.34 0 00.382.944c.27.26.575.39.916.39.173 0 .338-.035.496-.103.158-.07.298-.165.42-.288.123-.123.217-.266.283-.43.066-.163.099-.334.099-.513V27.96h.634v3.068a1.963 1.963 0 01-1.184 1.821c-.233.1-.483.15-.747.15zm7.76-5.039v.645H20.13v4.348h-.65v-4.348h-1.687v-.645h4.025zm1.802 4.993V27.96h3.177v.645h-2.543v1.526h1.947v.644h-1.948v1.542h2.544v.637H23.62v-.001z" fill="#313942"/><path d="M27 19.893c-3.662-3.65-7.067-7.237-10.7-10.586-1.903-1.755-3.688-1.692-5.743-.111-1.83 1.406-3.457 3.064-5.398 4.812 3.186.733 5.052 2.721 6.965 4.698 1.816 1.877 3.724 3.674 5.67 5.422 1.41 1.268 3.084 1.24 4.505.109 1.67-1.33 3.148-2.892 4.7-4.344zM1.736 24.612l6.192-6.023c-1.243-2.141-4.789-2.194-6.534-.483-1.607 1.575-2.224 4.624.342 6.506z" fill="#505050"/></g><defs><clipPath id="clip0"><path fill="#fff" transform="translate(0 8)" d="M0 0h27v25H0z"/></clipPath></defs></svg>