<?xml version="1.0" encoding="UTF-8"?>
<svg id="Layer_2" data-name="Layer 2" style="
    fill: #fff;
" xmlns="http://www.w3.org/2000/svg" viewBox="0 0 202.41 139.8">
  <g id="Layer_1-2" data-name="Layer 1">
    <g id="Logo_Text" data-name="Logo+Text">
      <g id="Logo">
        <g>
          <path d="M98.32,132.96c-3.89,2.79-7.33,5.17-10.4,6.83l-3.83-5.86c2.03-1.79,4.41-3.8,7.11-5.99,2.52,1.73,4.9,3.43,7.11,5.01Z"/>
          <path d="M155.16,81.98c-.4,2.36-.99,4.65-1.78,6.85-1.56,4.4-4.01,8.43-6.97,12.05l-7.03,8.6c-4.99,5.8-9.87,11.32-14.49,16.43l-9.79-3.14-1.47-.47c-.76,.5-1.51,.99-2.24,1.49-2.29-1.83-4.77-3.77-7.41-5.82,1.02-.77,2.04-1.54,3.09-2.33,7.02-5.28,14.94-11.02,23.37-16.93,4.3-3,8.51-5.91,12.57-8.64,4.22-2.87,8.3-5.56,12.16-8.07Z"/>
          <path d="M118.31,133.94l-3.83,5.86c-3.82-2.07-8.17-5.23-13.28-8.9-2.27-1.62-4.69-3.36-7.27-5.15-1.64-1.13-3.36-2.29-5.15-3.46l-1.47,.47-9.79,3.14c-4.62-5.1-9.5-10.63-14.49-16.43l-7.03-8.6c-2.96-3.62-5.4-7.65-6.97-12.05-.78-2.2-1.37-4.49-1.78-6.85,3.86,2.51,7.94,5.2,12.16,8.07,4.06,2.74,8.27,5.64,12.57,8.64,8.43,5.91,16.35,11.65,23.37,16.93,2.02,1.52,3.98,3,5.85,4.44,2.59,1.99,5.01,3.89,7.27,5.68,3.84,3.06,7.15,5.82,9.84,8.19Z"/>
        </g>
        <g>
          <g>
            <path d="M112.4,55.78c.06,.18,.14,.35,.22,.51,6.61,10.65,17.14,18.32,29.48,21.28,5.23-16.45,15.48-31.14,29.26-41.65,.12-.12,.28-.22,.41-.32v-.06l1.93-1.42c.34-.24,.69-.49,1.05-.71,7.81-5.42,16.39-9.46,25.56-12.01h.02c-1.58-7.91-5.15-15.28-10.33-21.39C189.26,0,188.49,0,187.74,0c-4.08,0-8.14,.34-12.11,.95l-7.37,1.54c-4.44,1.14-8.76,2.66-12.88,4.54-3.39,1.54-6.63,3.41-9.76,5.42l-3.19,2.03c-1.7,1.18-3.35,2.45-4.95,3.75-5.54,4.59-10.27,10.08-14.36,16.01l-.34,.49c-4.42,6.45-8.05,13.43-10.33,20.88l-.06,.18Z"/>
            <path d="M170.27,60.12c0,9.62,2.66,18.79,7.71,26.8,.81,1.28,1.66,2.52,2.58,3.73,2.01,2.62,4.28,5.07,6.74,7.26-.45-2.74-.67-5.56-.67-8.42,0-3.65,.37-7.2,1.06-10.63,2.01-10,6.84-18.95,13.65-26.07,.69-3.43,1.06-6.98,1.06-10.63,0-5.15-.73-10.12-2.11-14.83-9.17,2.54-17.75,6.59-25.56,12.01-2.94,6.47-4.48,13.59-4.48,20.78Z"/>
          </g>
          <g>
            <path d="M90.02,55.78c-.06,.18-.14,.35-.22,.51-6.61,10.65-17.14,18.32-29.48,21.28-5.23-16.45-15.48-31.14-29.26-41.65-.12-.12-.28-.22-.41-.32v-.06l-1.93-1.42c-.34-.24-.69-.49-1.05-.71-7.81-5.42-16.39-9.46-25.56-12.01h-.02C3.67,13.51,7.24,6.13,12.42,.02c.73-.02,1.5-.02,2.25-.02,4.08,0,8.14,.34,12.11,.95l7.37,1.54c4.44,1.14,8.76,2.66,12.88,4.54,3.39,1.54,6.63,3.41,9.76,5.42l3.19,2.03c1.7,1.18,3.35,2.45,4.95,3.75,5.54,4.59,10.27,10.08,14.36,16.01l.34,.49c4.42,6.45,8.05,13.43,10.33,20.88l.06,.18Z"/>
            <path d="M32.14,60.12c0,9.62-2.66,18.79-7.71,26.8-.81,1.28-1.66,2.52-2.58,3.73-2.01,2.62-4.28,5.07-6.74,7.26,.45-2.74,.67-5.56,.67-8.42,0-3.65-.37-7.2-1.06-10.63-2.01-10-6.84-18.95-13.65-26.07-.69-3.43-1.06-6.98-1.06-10.63,0-5.15,.73-10.12,2.11-14.83,9.17,2.54,17.75,6.59,25.56,12.01,2.94,6.47,4.48,13.59,4.48,20.78Z"/>
          </g>
        </g>
      </g>
    </g>
  </g>
</svg>